<?xml version="1.0" encoding="UTF-8"?>
<svg width="24" height="24" viewBox="0 0 24 24" xmlns="http://www.w3.org/2000/svg">
  <path d="M12 0C5.383 0 0 5.383 0 12s5.383 12 12 12 12-5.383 12-12S18.617 0 12 0zm0 3c.68 0 1.34.068 1.982.191L13.4 4.74c-.46-.064-.927-.1-1.4-.1-.474 0-.94.036-1.4.1l-.582-1.55C10.66 3.069 11.32 3 12 3zm-6 9c0-1.293.416-2.49 1.121-3.467l1.046 1.046c-.11.293-.167.61-.167.942 0 .332.057.65.167.942l-1.046 1.046A5.972 5.972 0 016 12zm6 6c-1.293 0-2.49-.416-3.467-1.121l1.046-1.046c.293.11.61.167.942.167.332 0 .65-.057.942-.167l1.046 1.046A5.972 5.972 0 0112 18zm0-3c-1.657 0-3-1.343-3-3s1.343-3 3-3 3 1.343 3 3-1.343 3-3 3zm6-3c0 1.293-.416 2.49-1.121 3.467l-1.046-1.046c.11-.293.167-.61.167-.942 0-.332-.057-.65-.167-.942l1.046-1.046A5.972 5.972 0 0118 12z" style="fill: currentColor"/>
</svg>