<svg width="789" height="103" viewBox="0 0 789 103" fill="none" xmlns="http://www.w3.org/2000/svg">
<g clip-path="url(#clip0_3773_28)">
<path d="M174.234 47.0741C177.506 41.4709 181.951 37.0978 187.569 33.9473C193.184 30.7993 199.334 29.2265 206.02 29.2265C213.668 29.2265 220.473 31.111 226.434 34.8824C232.394 38.6538 236.719 43.998 239.406 50.9126H225.245C223.384 47.11 220.8 44.2713 217.492 42.4036C214.184 40.5359 210.36 39.6032 206.018 39.6032C201.262 39.6032 197.025 40.6773 193.304 42.8208C189.582 44.9666 186.671 48.0451 184.569 52.0562C182.467 56.0698 181.416 60.7379 181.416 66.0629C181.416 71.3879 182.467 76.0584 184.569 80.0696C186.671 84.0831 189.582 87.176 193.304 89.3554C197.025 91.5348 201.262 92.6233 206.018 92.6233C210.36 92.6233 214.184 91.6882 217.492 89.8229C220.8 87.9576 223.384 85.1189 225.245 81.3139H239.406C236.719 88.2309 232.394 93.5583 226.434 97.2938C220.473 101.029 213.668 102.897 206.02 102.897C199.265 102.897 193.098 101.324 187.516 98.1761C181.934 95.0281 177.506 90.6525 174.234 85.0493C170.959 79.4462 169.323 73.1166 169.323 66.0605C169.323 59.0044 170.959 52.6748 174.234 47.0717V47.0741Z" fill="#326DE6"/>
<path d="M310.521 30.1616V102.274H298.737V70.731H264.935V102.274H253.15V30.1616H264.935V61.0831H298.737V30.1616H310.521Z" fill="#326DE6"/>
<path d="M369.336 87.5404H339.255L334.086 102.274H321.786L347.524 30.0561H361.17L386.908 102.274H374.505L369.336 87.5404ZM366.028 77.8902L354.348 44.3768L342.563 77.8902H366.028Z" fill="#326DE6"/>
<path d="M435.388 102.274L418.85 73.4283H409.857V102.274H398.072V30.1616H422.879C428.392 30.1616 433.061 31.1302 436.885 33.0674C440.709 35.0047 443.568 37.5989 445.465 40.85C447.359 44.1011 448.307 47.7334 448.307 51.7446C448.307 56.4486 446.945 60.7187 444.225 64.5596C441.502 68.3982 437.315 71.0115 431.666 72.3925L449.446 102.276H435.388V102.274ZM409.854 63.9866H422.879C427.288 63.9866 430.613 62.8813 432.853 60.666C435.091 58.453 436.214 55.4776 436.214 51.7422C436.214 48.0067 435.11 45.0865 432.906 42.9742C430.699 40.8644 427.357 39.8094 422.879 39.8094H409.854V63.9866Z" fill="#326DE6"/>
<path d="M509.811 30.1615V39.8118H490.688V102.276H478.903V39.8094H459.678V30.1591H509.811V30.1615Z" fill="#326DE6"/>
<path d="M531.102 100.509C527.588 98.8498 524.849 96.6009 522.885 93.7645C520.922 90.9282 519.8 87.7826 519.525 84.3229H524.383C524.935 88.1278 526.709 91.518 529.707 94.491C532.705 97.4664 537.269 98.9529 543.403 98.9529C546.985 98.9529 550.105 98.296 552.758 96.9821C555.41 95.6682 557.461 93.87 558.909 91.5875C560.356 89.305 561.08 86.7804 561.08 84.0136C561.08 80.4867 560.234 77.684 558.548 75.6101C556.86 73.5338 554.758 71.9777 552.243 70.942C549.725 69.9038 546.333 68.7985 542.06 67.6213C537.374 66.377 533.6 65.1302 530.741 63.8859C527.88 62.6416 525.47 60.7211 523.507 58.1269C521.543 55.5327 520.561 51.9891 520.561 47.4913C520.561 44.0339 521.474 40.8691 523.301 37.9968C525.126 35.1269 527.727 32.8612 531.104 31.1997C534.479 29.5406 538.375 28.7086 542.784 28.7086C549.192 28.7086 554.361 30.3006 558.29 33.4822C562.219 36.6638 564.56 40.5742 565.32 45.2064H560.359C559.945 43.3386 559.031 41.4374 557.619 39.5001C556.205 37.5653 554.208 35.9565 551.624 34.6762C549.04 33.3959 545.956 32.7557 542.373 32.7557C537.548 32.7557 533.483 34.0888 530.175 36.7501C526.867 39.4138 525.214 42.9598 525.214 47.3858C525.214 50.9126 526.074 53.7322 527.799 55.842C529.521 57.9519 531.639 59.5439 534.154 60.6156C536.67 61.6897 540.064 62.7782 544.337 63.8835C549.092 65.1974 552.864 66.4609 555.656 67.6717C558.445 68.8825 560.824 70.7837 562.788 73.3779C564.751 75.9721 565.733 79.4846 565.733 83.9105C565.733 87.1616 564.871 90.2401 563.148 93.146C561.426 96.0518 558.892 98.4206 555.551 100.252C552.207 102.087 548.161 103.002 543.405 103.002C538.65 103.002 534.618 102.173 531.104 100.511L531.102 100.509Z" fill="#326DE6"/>
<path d="M647.388 30.9911V102.274H642.738V40.7445L615.449 102.274H611.728L584.337 40.7445V102.274H579.686V30.9911H584.647L613.591 96.1525L642.535 30.9911H647.393H647.388Z" fill="#326DE6"/>
<path d="M669.095 29.4351V102.274H664.445V29.4351H669.095Z" fill="#326DE6"/>
<path d="M726.257 29.4351V33.3791H705.584V102.276H700.934V33.3767H680.261V29.4327H726.259L726.257 29.4351Z" fill="#326DE6"/>
<path d="M789 29.4351V102.274H784.35V66.9956H741.968V102.274H737.318V29.4351H741.968V63.0539H784.35V29.4351H789Z" fill="#326DE6"/>
<path d="M0.188603 11.8824C3.95049 19.2094 18.0641 40.4016 55.6663 41.0322C56.6121 41.0489 57.3884 40.2865 57.3884 39.3395V11.1128C57.3884 10.1777 56.6336 9.42007 55.7021 9.42007H1.69097C0.429841 9.42007 -0.387025 10.7579 0.188603 11.8824Z" fill="#326DE6"/>
<path d="M62.0364 100.31V93.5823C62.0364 93.0285 62.3063 92.5082 62.7625 92.1965C65.8317 90.0962 77.6309 80.9495 78.3498 64.0801C78.388 63.1762 79.1213 62.4594 80.0218 62.4594H133.075C133.885 62.4594 134.577 63.0348 134.723 63.8332C135.743 69.3955 140.186 90.0315 150.191 91.8009C150.984 91.94 151.579 92.6041 151.579 93.4121V100.31C151.579 101.24 150.829 101.993 149.902 101.993H127.269C126.693 101.993 126.16 101.698 125.852 101.209C124.242 98.6652 118.331 90.7987 106.806 90.7987C95.2819 90.7987 89.9675 98.5597 88.4818 101.156C88.1857 101.677 87.6291 101.991 87.0344 101.991H63.7131C62.7864 101.991 62.0364 101.238 62.0364 100.308V100.31Z" fill="#326DE6"/>
<path d="M105.039 24.9156C105.376 24.5033 105.337 23.8631 104.927 23.525L100.47 19.5427C99.1202 21.758 98.5589 24.3522 98.7835 26.9056L104.59 25.2153C104.776 25.177 104.927 25.0643 105.039 24.9156Z" fill="#326DE6"/>
<path d="M105.414 28.711L99.4568 29.7252C100.355 32.2043 102.041 34.271 104.138 35.6232L106.424 30.1016C106.498 29.9146 106.498 29.7252 106.462 29.4998C106.35 29.0107 105.901 28.6726 105.414 28.711Z" fill="#326DE6"/>
<path d="M107.7 20.9716C108.261 20.9716 108.674 20.5209 108.71 19.9958L109.047 13.9851C108.634 14.0594 108.261 14.1361 107.848 14.2104C105.712 14.6996 103.802 15.7497 102.266 17.2913L107.248 20.8613C107.361 20.9357 107.547 20.974 107.697 20.974L107.7 20.9716Z" fill="#326DE6"/>
<path d="M108.861 27.0207L110.509 27.8095L112.157 27.0207L112.532 25.2537L111.409 23.8271H109.572L108.45 25.2537L108.861 27.0207Z" fill="#326DE6"/>
<path d="M112.493 20.5592C112.83 20.9716 113.391 21.0483 113.805 20.7846L118.711 17.2913C116.912 15.4884 114.552 14.3231 111.968 14.0234L112.305 20.1469C112.343 20.2979 112.379 20.4466 112.491 20.5592H112.493Z" fill="#326DE6"/>
<path d="M159.597 0H77.7693C76.9334 0 76.2574 0.628166 76.1284 1.45773C75.5074 5.4521 70.5967 8.05107 68.447 9.0077C67.8356 9.28103 67.4438 9.89241 67.4438 10.5637V49.371C67.4438 50.3132 68.2058 51.078 69.1445 51.078H140.114C141.038 51.078 141.772 50.33 141.803 49.4021C142.163 38.1671 156.927 28.0277 160.516 25.7236C161.004 25.4095 161.298 24.8701 161.298 24.2875V1.70708C161.298 0.764828 160.536 0 159.597 0ZM129.387 30.9647C129.275 30.9647 129.201 30.9647 129.086 30.9264C129.048 30.888 129.012 30.888 128.974 30.888C128.9 30.888 128.823 30.8497 128.749 30.8497C128.487 30.7753 128.3 30.6986 128.076 30.5859C127.964 30.5476 127.851 30.4732 127.739 30.4349H127.701C126.989 30.1711 126.351 29.9458 125.752 29.8714H125.678C125.453 29.8714 125.341 29.9841 125.191 30.0585C125.152 30.0585 125.152 30.0968 125.117 30.0968L124.668 30.0225C124.293 31.1877 123.769 32.3505 123.093 33.4031C121.82 35.4314 120.134 37.0834 118.149 38.2486L118.336 38.6993C118.336 38.7377 118.297 38.7377 118.297 38.7737C118.259 38.9607 118.185 39.1117 118.259 39.3754C118.445 39.9389 118.82 40.5023 119.234 41.1401V41.1784C119.308 41.2911 119.384 41.3654 119.458 41.4781C119.609 41.6651 119.757 41.8545 119.871 42.0799C119.91 42.1183 119.945 42.1926 119.984 42.2669C119.984 42.3053 120.022 42.3053 120.022 42.3413C120.172 42.6409 120.172 42.979 120.096 43.2811C120.022 43.5808 119.797 43.8062 119.535 43.9572C119.384 44.0315 119.236 44.0699 119.086 44.0699C118.637 44.0699 118.188 43.8062 117.963 43.3554C117.963 43.3554 117.925 43.3171 117.925 43.2811C117.887 43.2068 117.851 43.1684 117.813 43.0941C117.7 42.8687 117.662 42.6433 117.588 42.418C117.55 42.3053 117.514 42.1926 117.476 42.0799V42.0416C117.213 41.3271 116.988 40.6893 116.69 40.1642C116.539 39.9389 116.391 39.8646 116.203 39.8262C116.177 39.8006 116.153 39.7878 116.129 39.7878L115.904 39.3754C115.266 39.6008 114.631 39.7878 113.955 39.9389C112.907 40.2026 111.782 40.3153 110.697 40.3153C108.899 40.3153 107.1 39.9772 105.452 39.3395L105.189 39.8286C105.164 39.8542 105.139 39.8669 105.115 39.8669C104.965 39.9413 104.778 39.9796 104.628 40.205C104.291 40.7301 104.103 41.3319 103.842 42.0823C103.804 42.195 103.768 42.3077 103.73 42.4204C103.656 42.6457 103.618 42.8328 103.505 43.0965C103.467 43.1348 103.431 43.2092 103.393 43.2835C103.393 43.2835 103.355 43.3219 103.355 43.3578C103.13 43.7702 102.681 44.0723 102.23 44.0723C102.079 44.0723 101.931 44.0339 101.781 43.9596C101.22 43.6959 100.995 42.9838 101.294 42.3436C101.294 42.3436 101.332 42.3053 101.332 42.2693C101.37 42.195 101.406 42.1183 101.444 42.0823C101.595 41.8569 101.707 41.6699 101.857 41.4805C101.931 41.3678 102.008 41.2935 102.082 41.1808V41.1425C102.495 40.5047 102.832 39.9413 103.056 39.3778C103.13 39.1141 103.056 38.9271 102.982 38.776C102.982 38.7377 102.944 38.7377 102.944 38.7017L103.169 38.2126C102.607 37.8746 102.082 37.5365 101.559 37.1241C99.273 35.3211 97.5509 32.842 96.6528 30.0608L96.1273 30.1352C96.0891 30.1352 96.0891 30.0968 96.0533 30.0968C95.941 30.0225 95.7905 29.9098 95.566 29.9098H95.492C94.8925 29.9841 94.2547 30.2095 93.543 30.4732H93.5048C93.3925 30.5116 93.2802 30.5859 93.168 30.6243C92.9435 30.737 92.7548 30.8113 92.4944 30.888C92.4204 30.888 92.3439 30.9264 92.2699 30.9264C92.2699 30.9647 92.2317 30.9647 92.1959 30.9647C92.0836 31.0031 92.0096 31.0031 91.8973 31.0031C91.2978 31.0031 90.8105 30.665 90.6983 30.14C90.586 29.5382 90.9968 28.9004 91.6728 28.7494C91.711 28.711 91.7468 28.711 91.785 28.711C91.8591 28.711 91.9355 28.6726 92.0096 28.6726C92.2723 28.6343 92.4968 28.5983 92.7213 28.5983C92.8336 28.56 92.9841 28.56 93.0963 28.56H93.1345C93.9204 28.4856 94.5963 28.4089 95.1576 28.2219C95.3821 28.1092 95.4944 27.9582 95.5708 27.8095C95.5708 27.7712 95.609 27.7712 95.609 27.7352L96.0963 27.5842C95.609 24.1292 96.3208 20.6336 98.1934 17.6678C98.2316 17.5551 98.3056 17.4808 98.3797 17.3681L98.0047 17.03V16.9557C98.0047 16.7687 98.0047 16.5793 97.8184 16.3923C97.3694 15.9799 96.8081 15.6418 96.1321 15.227C96.0198 15.1527 95.9076 15.076 95.7953 15.04C95.5708 14.9273 95.3821 14.8146 95.1576 14.6636C95.0836 14.6252 95.0453 14.5509 94.9713 14.5125C94.9331 14.5125 94.9331 14.4742 94.8973 14.4742C94.3718 14.0234 94.2595 13.273 94.6345 12.7839C94.8208 12.5202 95.16 12.3715 95.4968 12.3715C95.7953 12.3715 96.0963 12.4842 96.3208 12.6712C96.3208 12.7096 96.359 12.7096 96.3948 12.7455C96.4689 12.8199 96.5453 12.8582 96.5811 12.8966C96.7674 13.0836 96.9179 13.2346 97.0684 13.4216C97.1807 13.496 97.2547 13.6087 97.3311 13.6854C97.8566 14.2488 98.3415 14.7379 98.8287 15.076C98.941 15.1503 99.0532 15.1887 99.1655 15.1887C99.2395 15.1887 99.316 15.1503 99.39 15.1503H99.4641L99.8391 15.414C101.824 13.3114 104.372 11.8464 107.255 11.2063C107.929 11.0552 108.605 10.9809 109.278 10.9066L109.317 10.4175C109.342 10.3919 109.367 10.3671 109.391 10.3432C109.503 10.2305 109.653 10.1178 109.689 9.85405C109.763 9.25226 109.651 8.57614 109.577 7.8257V7.78734C109.539 7.63629 109.539 7.5236 109.503 7.41092C109.429 7.18554 109.391 6.96017 109.391 6.69644V6.39674C109.391 6.05868 109.503 5.75899 109.727 5.53361C109.952 5.30824 110.253 5.15719 110.551 5.15719C111.189 5.15719 111.712 5.72062 111.712 6.39674V6.7348C111.674 6.99853 111.638 7.22391 111.6 7.44928C111.562 7.56196 111.526 7.71301 111.526 7.8257V7.86406C111.452 8.6145 111.376 9.29062 111.414 9.89241C111.452 10.1561 111.6 10.2688 111.712 10.3815C111.738 10.4071 111.762 10.4319 111.786 10.4558L111.825 10.945C114.672 11.2087 117.406 12.2972 119.654 14.0618C120.18 14.5125 120.703 14.9633 121.19 15.4884L121.639 15.1887H121.713C121.787 15.227 121.863 15.227 121.937 15.227C122.05 15.227 122.162 15.1887 122.274 15.1143C122.761 14.7763 123.249 14.3255 123.772 13.7621C123.884 13.6878 123.958 13.5751 124.035 13.4984C124.185 13.3114 124.336 13.1603 124.522 12.9733C124.596 12.9349 124.634 12.8606 124.708 12.8223C124.734 12.7967 124.758 12.7719 124.782 12.7479C125.045 12.5609 125.308 12.4482 125.606 12.4482C125.943 12.4482 126.28 12.5993 126.468 12.8606C126.843 13.3497 126.731 14.1002 126.206 14.5509C126.206 14.5893 126.167 14.5893 126.132 14.6252C126.058 14.6996 125.981 14.7379 125.945 14.7763C125.721 14.9273 125.535 15.04 125.308 15.1527C125.195 15.227 125.083 15.2654 124.971 15.3397C124.297 15.7521 123.736 16.0902 123.285 16.5049C123.134 16.6919 123.098 16.8814 123.098 17.0684V17.1427L122.723 17.4808C123.698 18.984 124.41 20.636 124.82 22.403C125.231 24.1676 125.308 25.9706 125.083 27.6992L125.57 27.8503C125.57 27.8886 125.609 27.8886 125.609 27.9246C125.683 28.0757 125.759 28.2243 126.022 28.337C126.621 28.524 127.257 28.6007 128.045 28.675H128.083C128.234 28.7134 128.346 28.7134 128.458 28.7134C128.683 28.7134 128.907 28.7518 129.17 28.7877C129.244 28.7877 129.32 28.8261 129.394 28.8261C129.394 28.8645 129.433 28.8645 129.468 28.8645H129.507C130.18 29.0515 130.593 29.6533 130.593 30.104C130.443 30.5931 129.956 30.9671 129.394 30.9671L129.387 30.9647Z" fill="#326DE6"/>
<path d="M120.509 19.5451L115.976 23.6401C115.864 23.7528 115.789 23.9039 115.751 24.0525C115.639 24.5776 115.938 25.1051 116.463 25.2537L122.195 26.9056C122.308 25.6661 122.234 24.3882 121.933 23.1103C121.634 21.7964 121.147 20.5928 120.509 19.5403V19.5451Z" fill="#326DE6"/>
<path d="M110.883 31.2644C110.47 31.0391 109.985 31.1901 109.684 31.5282L106.725 36.9011C107.924 37.2776 109.197 37.5029 110.508 37.5029C111.407 37.5029 112.269 37.3902 113.131 37.2032C113.506 37.0906 113.881 37.0162 114.218 36.9035L111.333 31.6816C111.22 31.5306 111.07 31.3819 110.883 31.2692V31.2644Z" fill="#326DE6"/>
<path d="M115.004 28.7853C114.555 29.0107 114.366 29.4998 114.478 29.9505L116.838 35.6232C118.262 34.6834 119.499 33.4822 120.435 31.9789C120.922 31.2644 121.297 30.514 121.522 29.6868L115.529 28.6726C115.343 28.6726 115.154 28.711 115.004 28.7853Z" fill="#326DE6"/>
</g>
<defs>
<clipPath id="clip0_3773_28">
<rect width="789" height="103" fill="white"/>
</clipPath>
</defs>
</svg>
